Coordinates
version=1
nRows=9
nColumns=24
inDegrees=yes

Units are S.I. units (second, meters, Newtons, ...)
Angles are in degrees.

endheader
time	pelvis_tilt	pelvis_list	pelvis_rotation	pelvis_tx	pelvis_ty	pelvis_tz	hip_flexion_r	hip_adduction_r	hip_rotation_r	knee_angle_r	ankle_angle_r	subtalar_angle_r	mtp_angle_r	hip_flexion_l	hip_adduction_l	hip_rotation_l	knee_angle_l	ankle_angle_l	subtalar_angle_l	mtp_angle_l	lumbar_extension	lumbar_bending	lumbar_rotation
      1.17383333	      0.61624088	      3.52259064	      0.56403434	      0.11776967	      1.00547884	      0.27704152	     20.61216412	     -2.20966693	     -1.86430746	    -69.94373925	     -4.13360500	    -17.47728533	     -4.57272630	      7.59522801	      7.42565221	      0.29524018	    -11.88973541	      3.15008365	     -6.10201812	      3.79146792	     -1.90671832	     -1.43755484	      1.94303455
      1.17800000	      0.63526575	      3.41341276	      0.51537791	      0.12278289	      1.00626021	      0.27700280	     21.15810525	     -2.03114519	     -1.73723363	    -69.76582136	     -3.52329662	    -17.73625247	     -4.59478648	      7.01947304	      7.31279469	      0.36209761	    -11.44220500	      3.18539456	     -6.14365673	      3.77487917	     -1.95128810	     -1.30466861	      1.92594816
      1.18216667	      0.69632343	      3.31522530	      0.46740938	      0.12780530	      1.00707835	      0.27696074	     21.63489194	     -1.86852567	     -1.61658654	    -69.51461403	     -2.93193411	    -18.02371123	     -4.65005694	      6.37681231	      7.21705113	      0.48295784	    -10.95141319	      3.20096288	     -6.26422673	      3.73664673	     -2.04295188	     -1.20350261	      1.91688912
      1.18633333	      0.69243418	      3.16751933	      0.42602104	      0.13280718	      1.00779728	      0.27692777	     22.15890798	     -1.64873522	     -1.50826456	    -69.17998206	     -2.31965234	    -18.19518771	     -4.67250932	      5.84442158	      7.05976091	      0.53170277	    -10.53645410	      3.23397317	     -6.27976386	      3.71622564	     -2.05853354	     -1.00862005	      1.89341295
      1.19050000	      0.70868691	      3.04125948	      0.38637552	      0.13781497	      1.00849776	      0.27689634	     22.63998641	     -1.45422484	     -1.39791993	    -68.78393527	     -1.69106162	    -18.38543536	     -4.69783089	      5.28320914	      6.92746680	      0.60172347	    -10.10706196	      3.27363338	     -6.31954098	      3.69291412	     -2.09487046	     -0.85691441	      1.87065516
      1.19466667	      0.73892246	      2.89612807	      0.35174002	      0.14283889	      1.00921075	      0.27686668	     23.07560042	     -1.24681203	     -1.31249403	    -68.30307250	     -1.09020589	    -18.55452070	     -4.72175696	      4.70707872	      6.77411059	      0.67368284	     -9.67914199	      3.30669300	     -6.36520435	      3.66963212	     -2.14306162	     -0.68393458	      1.84809116
      1.19883333	      0.80983295	      2.77824846	      0.31312784	      0.14784344	      1.00992952	      0.27683543	     23.44926644	     -1.06847194	     -1.21300623	    -67.76361774	     -0.50631129	    -18.75637573	     -4.78794990	      4.06144138	      6.65791284	      0.82809898	     -9.19575647	      3.31578245	     -6.52413791	      3.61476274	     -2.25770405	     -0.56310860	      1.82236112
      1.20300000	      0.81355073	      2.62420122	      0.28864380	      0.15285887	      1.01052332	      0.27680084	     23.86803876	     -0.85632583	     -1.13997817	    -67.14689967	      0.07140993	    -18.89487290	     -4.84539410	      3.52363240	      6.49649134	      0.92233090	     -8.78317537	      3.34382138	     -6.61152884	      3.56577595	     -2.27400135	     -0.37655329	      1.79597167
      1.20716667	      0.81118072	      2.47238381	      0.26629653	      0.15784907	      1.01106029	      0.27676554	     24.27493629	     -0.64823065	     -1.06751449	    -66.46998196	      0.63843264	    -19.01334920	     -4.87733111	      3.00934403	      6.33498868	      0.98884374	     -8.39910135	      3.37625572	     -6.65118751	      3.53602415	     -2.29556280	     -0.17965386	      1.76910225
